<svg xmlns="http://www.w3.org/2000/svg" viewBox="0 0 64 64"><rect width="64" height="64" rx="16" fill="#fff7f3"/><rect x="2" y="2" width="60" height="60" rx="15" fill="none" stroke="#f0bfd0" stroke-width="2"/><path d="M16 35c0-8 7-14 16-14s16 6 16 14v8H16z" fill="#e99ab6"/><path d="M30 18h4v5h-4zM32 12l3 4h-6z" fill="#b86f89"/><path d="M18 42c5-2 10-1 14 3 4-4 9-5 14-3l-14 9z" fill="#fff"/><path d="M32 45v6" stroke="#e2a3b8" stroke-width="1.8"/><path d="M46 40c3-3 7-2 8 1-3 0-5 1-6 4" fill="#f3a9bf"/><path d="M49 38c1-3 4-4 6-2-2 1-3 2-4 4" fill="#d887a5"/><path d="M14 51c7-3 12-3 18 0 6-3 11-3 18 0" fill="none" stroke="#d58aa6" stroke-width="2" stroke-linecap="round"/></svg>
